<svg id="Layer_1" data-name="Layer 1" xmlns="http://www.w3.org/2000/svg" viewBox="0 0 255.11 141.73"><defs><style>.cls-1{fill:#df4c44;}.cls-2,.cls-3,.cls-4{fill:#fdfcfa;stroke:#fff;}.cls-2,.cls-3{stroke-miterlimit:10;}.cls-2,.cls-4{stroke-width:0.75px;}.cls-4{stroke-linecap:round;stroke-linejoin:round;}</style></defs><title>Fixxx_Logo_Kleur</title><g id="Logo-Label"><polygon id="Fill-422" class="cls-1" points="255.11 0.04 255.11 96.79 0 141.77 0 0.04 255.11 0.04"/></g><path id="Fill-483" class="cls-2" d="M95.43,94.07a1.48,1.48,0,0,0,1.06,0c.74-.25,1.58-1.46,2.14-2.25,1.28-1.8,3.09-5.29,4.48-7.64,3.33-5.66,7.73-12.75,7.18-13.82-.35-.7-2.38.62-2.89,1.22C107.4,71.54,93.84,93.15,95.43,94.07Z"/><path id="Fill-483-2" data-name="Fill-483" class="cls-3" d="M110,91.46a1.4,1.4,0,0,0,1,.31c.79,0,2-.87,2.76-1.42,1.76-2,20.53-18.84,24.84-23.82-.11-.77-5.12,3.68-5.8,4.07C132.79,70.6,108.78,90.08,110,91.46Z"/><path id="Fill-485" class="cls-2" d="M110.05,64.74c1.26-2.58,4.34-1.12,3.57,1.48-1,3.35-5.39,1.23-3.57-1.48"/><path id="Fill-487" class="cls-4" d="M106.89,64.14,79.41,74.68c-.52.53-4.21,4-4.21,4L97,71.31c.33-.22,3.36-2.67,4.73-3.52,1.63-1,5.19-3.65,5.19-3.65"/><path id="Fill-487-2" data-name="Fill-487" class="cls-3" d="M118.8,72.66c1,3.29,2.94,13.84,5.81,15.92.52.38,2.51.75,2.39,0,0,0-4.24-11.07-6.65-17-1.2-3-1.35-3.13-1.46-2.8Z"/><path id="Fill-483-3" data-name="Fill-483" class="cls-3" d="M133.06,87.27a1.42,1.42,0,0,0,1,.31c.78,0,2-.87,2.76-1.42,1.76-2,20.06-19.74,24.83-23.82-.1-.77-5.12,3.68-5.79,4.08C155.88,66.42,131.87,85.89,133.06,87.27Z"/><path id="Fill-487-3" data-name="Fill-487" class="cls-3" d="M142,64.57c.06-.17.13-.2.33.17s.54,1.15,1.14,2.63c1.2,3,2.86,7.27,4.22,10.84S149.85,84,149.85,84c0,.53-.15.93-.74,1a3.57,3.57,0,0,1-1.61-.56s-.74-.42-2.27-4.65c-1.34-3-3.34-10.54-3.45-13.72Z"/><path id="Fill-483-4" data-name="Fill-483" class="cls-3" d="M155.06,83.41c.08.31.75.31,1,.31a3.44,3.44,0,0,0,2.75-1.43c1.51-2.11,1.31-2.12,24.84-23.81-.11-.78-5.12,3.68-5.8,4.07C177.87,62.55,155.21,81,155.06,83.41Z"/><path id="Fill-487-4" data-name="Fill-487" class="cls-3" d="M169.57,80.71c.47.38,1.22,1.14,2.36-.48.53-.75-4.09-10.88-6.49-16.81-1.2-3-1.36-3.13-1.47-2.8C164,60.62,169.12,80.35,169.57,80.71Z"/><path class="cls-2" d="M172.5,26.27c.49.22-39.05,15.91-39.05,15.91L101.76,54s-1.4.43-2.28.82c-1.09.82-7.36,10.43-13,20.09-2.84,4.85-5.53,9.71-7.33,13.47,0,0,0,0,0,0-1.37,2.35-3.09,5.66-4.33,7.39-.24.33-.53.74-.84,1.12a3.37,3.37,0,0,1-1.3,1.12,1.38,1.38,0,0,1-1.06,0c-.9-.52,3.09-7.72,6.7-13.85a.75.75,0,0,1,.07-.12C84.55,72.31,95,57.46,93.77,56.94c-.86-.38-19.73,7.73-20.32,7.77a1.59,1.59,0,0,1-1.66-.86,2.21,2.21,0,0,1-.1-2.23,1.71,1.71,0,0,1,.69-.64c1.12-.65,23-7.68,23.36-8.81,1.17-1.78,2.84-5,4-5.27s2.69.68,2.35,1.94c0,.46-.88,1.32-.75,1.68s.16.61,1.09.27,4.35-1.08,11.42-3.61S146.17,36,147.44,35.55s6.62-2.39,11.3-4S172.05,26.07,172.5,26.27Z"/></svg>